<?xml version="1.0" encoding="utf-8"?>
<svg xmlns="http://www.w3.org/2000/svg" height="32" width="32" viewBox="0 0 32 32">
  <g>
    <path id="path1" transform="rotate(0,16,16) translate(0,0.457009974497112) scale(0.999999405386626,0.999999405386626)  " fill="#E95B2B" d="M3.0263408,0C7.2224015,5.0950343 18.711398,2.8970153 25.605466,11.989112 31.699485,20.081168 22.508409,25.176217 20.010414,24.877234 28.003425,29.672261 30.101455,28.673259 31.20046,28.973281 32.598476,29.372271 32.099449,31.271275 30.200456,31.071292 27.403447,30.571288 21.109416,26.975245 19.411413,25.776229 17.812408,24.67722 10.119385,19.382186 5.6243728,9.7910926 8.9204057,20.68118 16.314416,26.275225 17.413419,27.174252 16.713405,28.074254 15.314412,29.372271 12.01838,29.872275 5.1243709,30.871278 -5.1656462,22.879199 3.0263408,0z" />
  </g>
</svg>