<?xml version="1.0" encoding="utf-8"?>
<svg xmlns="http://www.w3.org/2000/svg" height="32" width="32" viewBox="0 0 32 32">
  <g>
    <path id="path1" transform="rotate(0,16,16) translate(0,5.0200123309795) scale(0.999997615819893,0.999997615819893)  " fill="#F68E43" d="M24.015025,7.8281101L23.879297,8.01167C22.050148,10.425189 19.211065,11.978017 16.029064,11.978017 12.847062,11.978017 10.007978,10.425189 8.1788301,8.01167L8.0439978,7.8293222 8.0439978,15.971011 24.015025,15.971011z M25.012964,0C25.564974,-1.2098826E-07,26.011025,0.44699102,26.011026,0.99798586L26.011026,1.6220046 26.011026,1.6255604 26.011026,2.6469451 26.02745,2.7877427C26.499751,6.504928,29.149313,9.7490242,31.93603,9.7490242L31.93603,11.745027C29.652532,11.745027,27.657783,10.408775,26.233909,8.475273L26.011026,8.1589144 26.011026,15.971011 32.000077,15.971011 32.000077,17.967009 26.011026,17.967009 26.011026,20.962012C26.011025,21.514016 25.564974,21.96 25.012964,21.96 24.460954,21.96 24.015025,21.514016 24.015025,20.962012L24.015025,17.967009 8.0439978,17.967009 8.0439978,20.962027C8.0439978,21.514027 7.5980186,21.960027 7.0460453,21.960027 6.4940701,21.960027 6.0480919,21.514027 6.0480919,20.962027L6.0480919,17.967009 0.058094025,17.967009 0.058094025,15.971011 6.0480919,15.971011 6.0480919,7.9728998 5.9623394,8.1059225C4.5264645,10.236524,2.426218,11.745027,0,11.745027L0,9.7490242C3.0749969,9.7490242,5.982996,5.7990187,5.982996,1.6220132L6.0470581,1.6220132 6.0480919,1.6220046 6.0480919,0.99801924C6.0480919,0.44701912 6.4940701,1.8939982E-05 7.0460453,1.8596694E-05 7.5980186,1.8939982E-05 8.0439978,0.44701912 8.0439978,0.99801924L8.0439978,1.6220046C8.0440588,6.2320102 11.626061,9.9820145 16.029064,9.9820145 20.156878,9.9820145 23.563111,6.6861122 23.972765,2.4755972L23.98338,2.3508337 23.979294,2.2970489C23.964531,2.0711969,23.957034,1.845982,23.957034,1.6220132L24.014067,1.6220132 24.015025,1.6220046 24.015025,0.99798586C24.015025,0.44699102,24.460954,-1.2098826E-07,25.012964,0z" />
  </g>
</svg>