<?xml version="1.0" encoding="utf-8"?>
<svg xmlns="http://www.w3.org/2000/svg" height="32" width="32" viewBox="0 0 32 32">
  <g>
    <path id="path1" transform="rotate(0,16,16) translate(0,4.95000076293945) scale(1,1)  " fill="#705848" d="M16,0C16,0.20001212 17.5,6.1000042 24.599976,6.4999981 24.599976,6.4999981 24.099976,16.299983 32,22.099999L23,22.099999C23,22.099999 23.299988,17.799983 20.5,14.299983 20.5,14.299983 18.5,11.999996 16.199951,11.999996L16,11.999996 15.799988,11.999996C13.5,12.100002 11.5,14.299983 11.5,14.299983 8.7999878,17.799983 9,22.099999 9,22.099999L0,22.099999C7.8999634,16.399989 7.3999634,6.4999981 7.3999634,6.4999981 14.5,6.1000042 16,0.20001212 16,0z" />
  </g>
</svg>