<?xml version="1.0" encoding="utf-8"?>
<svg xmlns="http://www.w3.org/2000/svg" height="32" width="32" viewBox="0 0 32 32">
  <g>
    <path id="path1" transform="rotate(0,16,16) translate(0,3.54999923706055) scale(1,1)  " fill="#87CEFA" d="M28.899963,12.799995L30.200012,13.599998C30.700012,13.900001 30.799988,14.499999 30.5,14.999999 30.299988,15.400001 29.799988,15.599998 29.399963,15.400001 29.099976,14.799995 28.700012,14.299995 28.299988,13.799995 28.5,13.499999 28.700012,13.099998 28.899963,12.799995z M29.399963,8.9999991L31,8.9999991C31.599976,8.9999991 32,9.4999991 32,9.9999991 32,10.599998 31.5,10.999999 31,10.999999L29.399963,10.999999C29.5,10.699996 29.5,10.400001 29.5,10.099998 29.5,9.699996 29.5,9.4000006 29.399963,8.9999991z M14.399963,7.099998C17.700012,7.099998 20.5,9.5999976 21.399963,12.999999 21.899963,12.900001 22.5,12.799995 23,12.799995 26.299988,12.799995 29,15.499999 29,18.799995 29,20.900001 27.899963,22.799995 26.200012,23.900001 25.5,24.400001 24.700012,24.799995 23.700012,24.799995 23.5,24.799995 23.200012,24.900001 22.899963,24.900001 22.599976,24.900001 22.399963,24.900001 22.200012,24.799995L6.7999878,24.799995C6.5,24.799995 6.2999878,24.900001 6,24.900001 2.7000122,24.900001 0,22.299995 0,19.099998 0,15.900001 2.7000122,13.299995 6,13.299995 6.5,13.299995 6.8999634,13.400001 7.2999878,13.400001 8.2000122,9.7999945 11,7.099998 14.399963,7.099998z M30,4.6999965C30.399963,4.6999965 30.700012,4.9000011 30.899963,5.1999965 31.200012,5.6999965 31,6.299995 30.5,6.599998L29,7.4000011C28.799988,6.799995,28.399963,6.1999965,28,5.599998L29.399963,4.799995C29.700012,4.6999965,29.799988,4.6999965,30,4.6999965z M14.700012,4.1999965C14.899963,4.1999965,15,4.299995,15.200012,4.299995L16.599976,5.099998C16.299988,5.4999996 16.099976,5.6999965 16,5.9999996 15.5,5.9000011 15,5.799995 14.5,5.799995L14,5.799995C13.700012,5.4999996 13.700012,4.9999996 13.899963,4.599998 14,4.4000011 14.299988,4.1999965 14.700012,4.1999965z M22.099976,3.699997L22.299988,3.699997C25.700012,3.7999952 28.399963,6.599998 28.299988,10.099998 28.299988,11.199996 27.899963,12.199996 27.399963,13.099998 26.200012,12.099998 24.599976,11.599998 22.899963,11.599998L22.099976,11.599998C21.099976,9.0999976 19.200012,7.1999965 17,6.299995 18.200012,4.6999965 20.099976,3.6999967 22.099976,3.699997z M26.899963,1.4000016C27.099976,1.4000014 27.299988,1.4000014 27.5,1.5999985 28,1.9000013 28.099976,2.4999998 27.799988,3L26.899963,4.4000011C26.399963,3.9999996,25.799988,3.5999983,25.200012,3.2999955L26,1.9000016C26.200012,1.5999984,26.599976,1.4000014,26.899963,1.4000016z M18,1C18.399963,0.99999992,18.700012,1.1999969,18.899963,1.5L19.700012,3C19.099976,3.1999967,18.399963,3.5999983,17.899963,3.9000016L17.099976,2.5C16.799988,1.9999998 17,1.4000014 17.5,1.0999985 17.700012,1.0999984 17.899963,0.99999992 18,1z M22.399963,0C23,-3.7413884E-08,23.399963,0.49999992,23.399963,1L23.399963,2.5999985C23.099976,2.4999998,22.700012,2.4999998,22.399963,2.5L21.399963,2.5 21.399963,0.9000015C21.399963,0.40000147,21.899963,-3.7413884E-08,22.399963,0z" />
  </g>
</svg>