<?xml version="1.0" encoding="utf-8"?>
<svg xmlns="http://www.w3.org/2000/svg" height="32" width="32" viewBox="0 0 32 32">
  <g>
    <path id="path1" transform="rotate(0,16,16) translate(1.99298429375952,0) scale(1.00000023841864,1.00000023841864)  " fill="#D5D56A" d="M14.071157,0.0014877309C14.176168,-0.00049591031 14.281148,-0.00049591031 14.387166,0.0014877309 15.126147,0.017509427 15.88414,0.15151186 16.657146,0.43050327 21.415126,2.1474798 24.532089,6.4944866 26.374124,10.560489 26.587135,11.030489 26.783119,11.497468 26.964086,11.956482 29.156095,17.551473 28.014133,25.212438 22.608114,29.297453 17.627145,33.059439 9.6491762,32.868429 4.9021836,28.883451 3.6681788,27.84845 2.4101878,26.452457 1.6781959,25.109442 -1.7387845,18.848467 0.37720539,10.652468 5.1851717,5.3144963 7.2941733,2.9714833 10.439182,0.087486098 14.071157,0.0014877309z" />
  </g>
</svg>