<?xml version="1.0" encoding="utf-8"?>
<svg xmlns="http://www.w3.org/2000/svg" height="32" width="32" viewBox="0 0 32 32">
  <g>
    <path id="path1" transform="rotate(0,16,16) translate(0,4.83129233732937) scale(0.252466729355419,0.252466729355419)  " fill="#FF7327" d="M7.875,19.7579193115234L54.234375,19.7579193115234 54.234375,27.8672943115234 16.96875,27.8672943115234 16.96875,49.1485443115234 49.21875,49.1485443115234 49.21875,57.2579193115234 16.96875,57.2579193115234 16.96875,88.4766693115234 7.875,88.4766693115234 7.875,19.7579193115234z M75.2806243896484,27.3516693115234L75.2806243896484,50.0860443115234 94.8274993896484,50.0860443115234 100.382186889648,49.7637786865234 104.577499389648,48.7969818115234 107.671249389648,47.1212005615234 109.921249389648,44.6719818115234 111.292343139648,41.7129974365234 111.749374389648,38.5079193115234 111.528182983398,36.1788215637207 110.864608764648,34.0665168762207 109.758651733398,32.1710090637207 108.210311889648,30.4922943115234 106.184432983398,29.1182727813721 103.645858764648,28.1368293762207 100.594589233398,27.5479602813721 97.0306243896484,27.3516693115234 75.2806243896484,27.3516693115234z M66.1868743896484,19.7579193115234L96.6556243896484,19.7579193115234 100.973983764648,19.8736419677734 104.741561889648,20.2208099365234 107.958358764648,20.7994232177734 110.624374389648,21.6094818115234 114.925155639648,24.1700305938721 118.264999389648,28.1485443115234 120.409530639648,33.0821418762207 121.124374389648,38.5079193115234 120.828475952148,42.0206146240234 119.940780639648,45.2462005615234 118.461288452148,48.1846771240234 116.389999389648,50.8360443115234 113.700546264648,53.1153411865234 110.366561889648,54.9376068115234 106.388046264648,56.3028411865234 101.764999389648,57.2110443115234 104.940780639648,58.9337005615234 107.249374389648,60.6329193115234 111.128280639648,64.7462005615234 114.796249389648,69.7735443115234 126.749374389648,88.4766693115234 115.311874389648,88.4766693115234 106.218124389648,74.1797943115234 102.585311889648,68.7188568115234 99.6556243896484,64.7110443115234 97.2122650146484,61.9219818115234 95.0384368896484,60.1172943115234 92.9817962646484,59.0040130615234 90.8899993896484,58.2891693115234 88.8509368896484,58.0430755615234 85.8274993896484,57.9610443115234 75.2806243896484,57.9610443115234 75.2806243896484,88.4766693115234 66.1868743896484,88.4766693115234 66.1868743896484,19.7579193115234z" />
  </g>
</svg>

