<?xml version="1.0" encoding="utf-8"?>
<svg xmlns="http://www.w3.org/2000/svg" height="32" width="32" viewBox="0 0 32 32">
  <g>
    <path id="path1" transform="rotate(0,16,16) translate(6.78451581555039,0) scale(0.999999642372259,0.999999642372259)  " fill="#FFFFFF" d="M15.000005,2C14.211012,2 13.569018,2.6729999 13.569018,3.5 13.569018,4.3269999 14.211012,4.9999999 15.000005,5.0000001 15.788998,4.9999999 16.430994,4.3269999 16.430994,3.5 16.430994,2.6729999 15.788998,2 15.000005,2z M15.000005,0C16.891988,0 18.430975,1.5699997 18.430975,3.5 18.430975,5.0681249 17.415002,6.3985936 16.019199,6.8423899L16.000005,6.8479619 16.000005,24.000013C16.000005,28.411024 12.411016,32.000013 8.0000054,32.000013 3.5889946,32.000013 5.3592476E-06,28.411024 5.2452108E-06,24.000013L5.2452108E-06,23.958026 0,19.499011 1.9907855,22.500013 2.0000056,22.500013 2.0000056,22.513912 2.9579924,23.958026 2.0000056,23.958026 2.0000056,24.000013C2.0000054,27.308973 4.6909844,30.000013 8.0000054,30.000013 11.309026,30.000013 14.000005,27.308973 14.000005,24.000013L14.000005,6.8479617 13.980813,6.8423899C12.585007,6.3985936 11.569035,5.0681249 11.569035,3.5 11.569035,1.5699997 13.108022,0 15.000005,0z" />
  </g>
</svg>