<?xml version="1.0" encoding="utf-8"?>
<svg xmlns="http://www.w3.org/2000/svg" height="32" width="32" viewBox="0 0 32 32">
  <g>
    <path id="path1" transform="rotate(0,16,16) translate(1.05334467232327,0) scale(1.03522986997592,1.03522986997592)  " fill="#3F930A" d="M1.0173607,14.79827C1.0510798,14.798931 1.0850801,14.801259 1.1192675,14.805321 6.8142757,15.488308 10.618282,23.162164 10.876282,29.958035 10.897282,30.510025 10.467282,30.910017 9.9152808,30.910017L9.8762808,30.910017C9.3422799,30.910017 8.8982792,30.579023 8.8782792,30.040033 8.6542788,24.162145 5.3152742,17.289274 0.88126755,16.757285 0.33226681,16.690286 -0.058734894,16.215295 0.0072660446,15.667305 0.069141388,15.153565 0.51158333,14.788357 1.0173607,14.79827z M27.859643,11.411087C28.369689,11.404038 28.806868,11.778881 28.868752,12.291699 28.934731,12.840718 28.543739,13.337736 27.994728,13.403716 22.448738,14.068704 18.275734,22.656851 17.999733,29.948957 17.979744,30.487967 17.535744,30.911009 17.001747,30.911009 16.988747,30.911009 16.975746,30.911009 16.962746,30.909971 16.410744,30.890011 15.980751,30.424978 16.001747,29.872967 16.313728,21.638829 20.896736,12.240734 27.756752,11.417661 27.791313,11.413725 27.82564,11.411557 27.859643,11.411087z M23.910695,0.0002117157C24.373224,0.0092763901 24.781396,0.30841255 24.861893,0.78440571 24.95389,1.3283978 24.586904,1.8193903 24.041924,1.9113884 18.475135,2.8503752 14.281294,15.316189 14.001305,25.747034 13.986306,26.289026 13.541322,26.910017 13.002343,26.910017L12.974344,26.910017C12.422365,26.910017 11.986382,26.232027 12.001381,25.680036 12.011006,25.323915 12.024786,24.966118 12.04266,24.607058L12.046878,24.530893 12.011055,24.480646C11.932186,24.35659 11.884529,24.208467 11.878279,24.040033 11.654279,18.162145 8.3152738,11.289274 3.8812675,10.757285 3.3322668,10.690286 2.9412661,10.215295 3.007266,9.6673051 3.073266,9.1193154 3.5722666,8.7403226 4.1192675,8.8053215 8.034586,9.2748749 11.05611,13.048706 12.646045,17.569821L12.804037,18.041708 12.89362,17.560173C14.573159,8.7936127 18.474792,0.89870071 23.709937,0.014416695 23.777434,0.0035419464 23.844619,-0.001083374 23.910695,0.0002117157z" />
  </g>
</svg>