<?xml version="1.0" encoding="utf-8"?>
<svg xmlns="http://www.w3.org/2000/svg" height="32" width="32" viewBox="0 0 32 32">
  <g>
    <path id="path1" transform="rotate(0,16,16) translate(0.0350227363864519,0) scale(1,1)  " fill="#32CD32" d="M31.775864,11.099998C33.17581,11.099998,24.575947,16.400002,24.575947,32L19.776022,32C19.776022,18.400002,30.475832,11.099998,31.775864,11.099998z M0.17624342,11.099998C1.5762493,11.099998,10.976089,18.400002,10.976089,32L6.176164,32C6.176164,16.400002,-1.2237017,11.099998,0.17624342,11.099998z M4.7762193,5.2999954C5.6761707,5.2999954 10.57613,7.0999985 13.676066,15.299995 13.076098,17.099998 12.676078,19.199997 12.276121,21.5 10.276147,7.7999954 3.6761972,5.2999954 4.7762193,5.2999954z M27.975865,0C29.275896,0,18.276041,4.9000015,18.276041,32L13.576091,32C13.676066,7.2999954,26.675894,0,27.975865,0z" />
  </g>
</svg>