<?xml version="1.0" encoding="utf-8"?>
<svg xmlns="http://www.w3.org/2000/svg" height="32" width="32" viewBox="0 0 32 32">
  <g>
    <path id="path1" transform="rotate(0,16,16) translate(0,4.2489931960926) scale(0.393243158355624,0.393243158355624)  " fill="#00DD00" d="M4.6875,13.1708335876465L10.75,13.1708335876465 10.75,53.5770835876465 33.3125,53.5770835876465 33.3125,58.9833335876465 4.6875,58.9833335876465 4.6875,13.1708335876465z M61.937084197998,12.3895835876465L66.6675491333008,12.7919282913208 70.9214630126953,13.9989585876465 74.5034866333008,15.9247417449951 77.2183380126953,18.4833335876465 79.2261505126953,21.7958335876465 80.6870880126953,25.9833335876465 75.2183380126953,27.4833335876465 74.0620880126953,24.3583354949951 72.6558380126953,21.9833335876465 70.7964553833008,20.1825542449951 68.2808380126953,18.7802085876465 65.2808380126953,17.8778648376465 61.968334197998,17.5770835876465 58.093334197998,17.8934898376465 54.780834197998,18.8427085876465 52.042552947998,20.3075523376465 49.890209197998,22.1708335876465 48.237865447998,24.3348960876465 46.999584197998,26.7020835876465 45.687084197998,31.1317729949951 45.249584197998,35.9208335876465 45.776927947998,41.5458335876465 47.358959197998,46.1708335876465 49.948802947998,49.7645835876465 53.499584197998,52.2958335876465 57.655834197998,53.7958335876465 62.062084197998,54.2958335876465 65.9527130126953,53.9169273376465 69.7495880126953,52.7802085876465 73.0464630126953,51.2138023376465 75.4370880126953,49.5458335876465 75.4370880126953,41.0145835876465 61.968334197998,41.0145835876465 61.968334197998,35.6395835876465 81.3745880126953,35.6083335876465 81.3745880126953,52.6083335876465 76.8355178833008,55.7294273376465 72.1558380126953,57.9677085876465 67.3433303833008,59.3153648376465 62.405834197998,59.7645835876465 55.964427947998,59.0419273376465 50.140209197998,56.8739585876465 45.300365447998,53.3388023376465 41.812084197998,48.5145835876465 39.702709197998,42.7255210876465 38.999584197998,36.2958335876465 39.698802947998,29.8309898376465 41.796459197998,23.8114585876465 45.206615447998,18.7606773376465 49.843334197998,15.2020835876465 55.491771697998,13.0927085876465 61.937084197998,12.3895835876465z" />
  </g>
</svg>

