<?xml version="1.0" encoding="utf-8"?>
<svg xmlns="http://www.w3.org/2000/svg" height="32" width="32" viewBox="0 0 32 32">
  <g>
    <path id="path1" transform="rotate(0,16,16) translate(1.6,1.6) scale(0.9,0.9)  " fill="#FFFFFF" d="M16.1,10.6C13.1,10.6 10.6,13.1 10.6,16.1 10.6,19.1 13.1,21.6 16.1,21.6 19.1,21.6 21.6,19.1 21.6,16.1 21.6,14.8 21.1,13.6 20.300001,12.6L20.200001,12.5 17.500001,15.199999C17.700001,15.5 17.8,15.8 17.8,16.199999 17.8,17.199999 17.000001,18 16.000001,18 15.000001,18 14.200001,17.199999 14.200001,16.199999 14.200001,15.199999 15.000001,14.4 16.000001,14.4 16.3,14.4 16.6,14.5 16.8,14.6L16.900001,14.6 19.6,11.9 19.5,11.8C18.6,11.1,17.400001,10.6,16.1,10.6z M16.000001,1.9999995C8.3000011,1.9999998 2,8.2999997 2,16 2,23.7 8.3000011,30 16.000001,30 23.700001,30 30,23.7 30,16 30,13.1 29.100001,10.3 27.5,8.1000001L27.4,7.9999995 27.300001,7.9999995 26.800001,7.9999995C26.300001,7.9999998,25.800001,7.7999997,25.4,7.5999999L25.200001,7.4999995 22.200001,10.5C23.5,12 24.300001,13.9 24.300001,16.1 24.300001,20.699999 20.6,24.399999 16.000001,24.399999 11.400001,24.399999 7.7000008,20.699999 7.7000008,16.1 7.7000008,11.5 11.400001,7.7999997 16.000001,7.7999997 18.000001,7.7999997 19.800001,8.4999998 21.300001,9.6999998L21.6,9.8999996 24.700001,6.7999997 24.600001,6.6999999C24.400001,6.2999998 24.200001,5.8999999 24.200001,5.3999997 24.200001,5.0999998 24.200001,4.8999998 24.300001,4.6999999L24.100001,4.6C21.900001,2.8999999,19,1.9999998,16.000001,1.9999995z M16.000001,0C19.6,0,22.900001,1.1999998,25.600001,3.1999998L25.700001,3.2999997C26.000001,3.0999998 26.400001,2.9999998 26.800001,2.9999995 28.200001,2.9999998 29.300001,4.0999998 29.300001,5.4999996 29.300001,5.8999999 29.200001,6.2999998 29.100001,6.6L29.100001,6.6999999 29,6.6999999C30.900001,9.2999997 32,12.5 32,16 32,24.800001 24.800001,32 16.000001,32 7.2000008,32 0,24.800001 0,16 0,7.1999998 7.2000008,0 16.000001,0z" />
  </g>
</svg>