<?xml version="1.0" encoding="utf-8"?>
<svg xmlns="http://www.w3.org/2000/svg" height="32" width="32" viewBox="0 0 32 32">
  <g>
    <path id="path1" transform="rotate(0,16,16) translate(0,2.93201541177839) scale(1,1)  " fill="#FFFFFF" d="M6.0000377,19.135982L13.000038,19.135982C13.553038,19.135982 14.000038,19.582981 14.000038,20.135982 14.000038,20.688981 13.553038,21.135982 13.000038,21.135982L6.0000377,21.135982C5.4470377,21.135982 5.0000377,20.688981 5.0000377,20.135982 5.0000377,19.582981 5.4470377,19.135982 6.0000377,19.135982z M6.0000377,15.135982L13.000038,15.135982C13.553038,15.135982 14.000038,15.582981 14.000038,16.135982 14.000038,16.688981 13.553038,17.135982 13.000038,17.135982L6.0000377,17.135982C5.4470377,17.135982 5.0000377,16.688981 5.0000377,16.135982 5.0000377,15.582981 5.4470377,15.135982 6.0000377,15.135982z M22.000038,12.635982C20.070038,12.635982 18.500038,14.205981 18.500038,16.135982 18.500038,18.065981 20.070038,19.635982 22.000038,19.635982 23.930038,19.635982 25.500038,18.065981 25.500038,16.135982 25.500038,14.205981 23.930038,12.635982 22.000038,12.635982z M13.000038,11.135982C13.552037,11.135982 14.000038,11.583982 14.000038,12.135982 14.000038,12.687981 13.552037,13.135982 13.000038,13.135982 12.448038,13.135982 12.000038,12.687981 12.000038,12.135982 12.000038,11.583982 12.448038,11.135982 13.000038,11.135982z M9.5029964,11.135982C10.054996,11.135982 10.502996,11.583982 10.502996,12.135982 10.502996,12.687981 10.054996,13.135982 9.5029964,13.135982 8.9509964,13.135982 8.5029964,12.687981 8.5029964,12.135982 8.5029964,11.583982 8.9509964,11.135982 9.5029964,11.135982z M6.0000377,11.135982C6.5520377,11.135982 7.0000377,11.583982 7.0000377,12.135982 7.0000377,12.687981 6.5520377,13.135982 6.0000377,13.135982 5.4480376,13.135982 5.0000377,12.687981 5.0000377,12.135982 5.0000377,11.583982 5.4480376,11.135982 6.0000377,11.135982z M22.000038,10.635982C25.032038,10.635982 27.500038,13.103981 27.500038,16.135982 27.500038,19.167981 25.032038,21.635982 22.000038,21.635982 18.968039,21.635982 16.500038,19.167981 16.500038,16.135982 16.500038,13.103981 18.968039,10.635982 22.000038,10.635982z M3,8.1359704C2.447998,8.1359701,2,8.5839682,2,9.1359704L2,23.13597C2,23.687972,2.447998,24.13597,3,24.13597L29,24.13597C29.552002,24.13597,30,23.687972,30,23.13597L30,9.1359704C30,8.5839682,29.552002,8.1359701,29,8.1359704z M22.829634,1.1369181C23.259199,1.1556711 23.645693,1.4547019 23.755615,1.8943624 23.890615,2.4293296 23.563614,2.9722965 23.027607,3.1062882L10.909229,6.1359704 29,6.1359704C30.654053,6.1359701,32,7.4819784,32,9.1359704L32,23.13597C32,24.789962,30.654053,26.13597,29,26.13597L3,26.13597C1.3460693,26.13597,0,24.789962,0,23.13597L0,9.1359704C0,7.6887274,1.0305843,6.4772844,2.3962345,6.197037L2.5116997,6.1763556 2.5454021,6.1661017 22.543602,1.1664066C22.610228,1.1495328 22.677042,1.1398768 22.743216,1.1369457 22.772167,1.135663 22.800997,1.1356678 22.829634,1.1369181z M27.441885,0.00070285797C27.904804,-0.016851425 28.335573,0.29596043 28.450182,0.76495934 28.581163,1.3009586 28.252209,1.8419576 27.715284,1.9729576L26.158501,2.3519561C26.079512,2.3709562 25.999523,2.3799562 25.921534,2.379956 25.471596,2.3799562 25.062653,2.072957 24.950668,1.6159582 24.819687,1.0799589 25.149641,0.53895998 25.686567,0.40796089L27.24235,0.028961182C27.308966,0.012461185,27.375753,0.0032110214,27.441885,0.00070285797z" />
  </g>
</svg>