<?xml version="1.0" encoding="utf-8"?>
<svg xmlns="http://www.w3.org/2000/svg" height="32" width="32" viewBox="0 0 32 32">
  <g>
    <path id="path1" transform="rotate(0,16,16) translate(3.68296134160585,0) scale(0.542526134987767,0.542526134987767)  " fill="#A00000" d="M11.09375,18.2333335876465L11.09375,33.3895835876465 24.125,33.3895835876465 27.828125,33.1747436523438 30.625,32.5302085876465 32.6875,31.4130210876465 34.1875,29.7802085876465 35.1015625,27.8075523376465 35.40625,25.6708335876465 34.81640625,22.7098979949951 33.046875,20.3270835876465 30.00390625,18.7567710876465 25.59375,18.2333335876465 11.09375,18.2333335876465z M5.03125,13.1708335876465L25.34375,13.1708335876465 30.734375,13.4794282913208 34.65625,14.4052085876465 37.5234375,16.1122398376465 39.75,18.7645835876465 41.1796875,22.0536479949951 41.65625,25.6708335876465 41.458984375,28.0126304626465 40.8671875,30.1630210876465 39.880859375,32.1220054626465 38.5,33.8895835876465 36.70703125,35.4091148376465 34.484375,36.6239585876465 31.83203125,37.5341148376465 28.75,38.1395835876465 30.8671875,39.2880210876465 32.40625,40.4208335876465 34.9921875,43.1630210876465 37.4375,46.5145835876465 45.40625,58.9833335876465 37.78125,58.9833335876465 31.71875,49.4520835876465 29.2968730926514,45.8114585876465 27.34375,43.1395835876465 25.71484375,41.2802085876465 24.265625,40.0770835876465 21.5,38.8583335876465 20.140625,38.6942710876465 18.125,38.6395835876465 11.09375,38.6395835876465 11.09375,58.9833335876465 5.03125,58.9833335876465 5.03125,13.1708335876465z" />
  </g>
</svg>

