<?xml version="1.0" encoding="utf-8"?>
<svg xmlns="http://www.w3.org/2000/svg" height="32" width="32" viewBox="0 0 32 32">
  <g>
    <path id="path1" transform="rotate(0,16,16) translate(5.46700600570871,0) scale(0.53543416650885,0.53543416650885)  " fill="#0000A0" d="M20.75,12.3895835876465L25.54296875,12.7997398376465 29.734375,14.0302085876465 33.17578125,16.0575523376465 35.71875,18.8583335876465 37.328125,22.2567710876465 37.96875,26.0770835876465 32.15625,26.5145835876465 31.1289043426514,22.7020835876465 28.984375,19.9520835876465 25.63671875,18.2880210876465 21,17.7333335876465 16.24609375,18.2372398376465 12.984375,19.7489585876465 11.09765625,21.9716148376465 10.46875,24.6083335876465 10.9140625,26.8583335876465 12.25,28.6708335876465 13.4775390625,29.4725914001465 15.41015625,30.2841148376465 18.0478515625,31.1054039001465 21.390625,31.9364585876465 24.7958984375,32.7460289001465 27.6210918426514,33.5028648376465 29.8662090301514,34.2069664001465 31.53125,34.8583335876465 35.0078125,36.9481773376465 37.4375,39.5302085876465 38.8671875,42.5731773376465 39.34375,46.0458335876465 38.8203125,49.5966148376465 37.25,52.9364585876465 34.69921875,55.8114585876465 31.234375,57.9677085876465 27.06640625,59.3153648376465 22.40625,59.7645835876465 16.69140625,59.3114585876465 11.984375,57.9520835876465 8.234375,55.6825523376465 5.39062452316284,52.4989585876465 3.56640625,48.6200523376465 2.875,44.2645835876465 8.59375,43.7645835876465 9.26953125,46.8934898376465 10.484375,49.4052085876465 12.37890625,51.3973960876465 15.09375,52.9677085876465 18.4140625,53.9872398376465 22.125,54.3270835876465 25.3906230926514,54.0692710876465 28.25,53.2958335876465 30.56640625,52.0731773376465 32.203125,50.4677085876465 33.17578125,48.5888023376465 33.5,46.5458335876465 33.1875,44.5263023376465 32.25,42.7802085876465 30.59375,41.2997398376465 28.125,40.0770835876465 26.923828125,39.6679039001465 25.1640625,39.1591148376465 22.845703125,38.5507164001465 19.96875,37.8427085876465 17.048828125,37.0956382751465 14.6015625,36.3700523376465 12.626953125,35.6659507751465 11.125,34.9833335876465 8.26171875,33.0575523376465 6.234375,30.7177085876465 5.02734375,28.0184898376465 4.62499952316284,25.0145835876465 5.1171875,21.6591148376465 6.59375,18.5302085876465 9.015625,15.8778667449951 12.34375,13.9520835876465 16.3359375,12.7802095413208 20.75,12.3895835876465z" />
  </g>
</svg>

