<?xml version="1.0" encoding="utf-8"?>
<svg xmlns="http://www.w3.org/2000/svg" height="32" width="32" viewBox="0 0 32 32">
  <g>
    <path id="path1" transform="rotate(0,16,16) translate(0,0.348999977111816) scale(1,1)  " fill="#A890F0" d="M11.664001,10.46701C11.863007,10.966003 12.063019,11.463989 12.162018,11.963013 10.867004,13.058989 10.069,14.753997 10.069,16.548004 10.069,17.046997 10.169006,17.445007 10.268005,17.843994 9.8699951,18.143005 9.4710083,18.441986 8.9720154,18.740997 9.3710022,18.641998 9.6700134,18.641998 10.069,18.641998L10.567017,18.641998C11.365021,20.834989 13.359009,22.429991 15.851013,22.529997 16.000504,22.878492 16.10025,23.252241 16.162624,23.638491L16.189045,23.831411 16.259726,23.550848C16.338678,23.266422 16.436882,22.990751 16.549011,22.729002 18.84201,22.529997 20.736023,21.033995 21.53302,18.841003 21.733002,18.841003 22.032013,18.740997 22.231018,18.740997 22.529999,18.740997 22.729004,18.740997 23.029022,18.841003 22.630005,18.641998 22.131012,18.342987 21.832001,17.944 21.932007,17.545013 22.032013,17.046997 22.032013,16.64801 22.032013,14.753997 21.234009,13.158996 19.838013,12.062012 19.938019,11.664001 20.037994,11.36499 20.138,10.966003 19.838013,11.165008 19.539001,11.463989 19.240021,11.563995 18.343018,10.966003 17.147003,10.566986 15.951019,10.566986 14.753998,10.566986 13.757019,10.865997 12.860016,11.463989 12.462006,11.165008 12.063019,10.865997 11.664001,10.46701z M16.149994,0C19.539001,1.2808141E-07 22.330994,2.790985 22.330994,6.2799987 22.330994,7.0780028 22.131012,7.8749999 21.832001,8.5729979 22.929016,7.5759886 24.324005,6.9779967 25.820007,6.9779967 29.209015,6.9779967 32,9.7690123 32,13.259002 32,16.747986 29.209015,19.539001 25.820007,19.539001 25.520996,19.539001 25.321014,19.539001 25.022003,19.438995 27.016022,20.436003 28.412018,22.529997 28.412018,25.022001 28.412018,28.510984 25.619995,31.302 22.231018,31.302 19.265636,31.302 16.757345,29.165129 16.176605,26.293566L16.132391,26.043009 16.123413,26.093893C15.542673,28.966146 13.034382,31.102995 10.069,31.102995 6.6800232,31.102995 3.8880005,28.31201 3.8880005,24.821989 3.8880005,22.329985 5.2839966,20.236999 7.2780151,19.23999 6.9790039,19.339996 6.5800171,19.339996 6.1809998,19.339996 2.7920227,19.339996 0,16.548004 0,13.058989 0,9.5700072 2.7920227,6.7789916 6.1809998,6.7789916 7.9760132,6.7789916 9.4710083,7.5759886 10.667023,8.7730101 10.268005,8.1740111 10.069,7.2770079 10.069,6.2799987 10.069,2.790985 12.761017,1.2808141E-07 16.149994,0z" />
  </g>
</svg>