<?xml version="1.0" encoding="utf-8"?>
<svg xmlns="http://www.w3.org/2000/svg" height="32" width="32" viewBox="0 0 32 32">
  <g>
    <path id="path1" transform="rotate(0,16,16) translate(9.5367431640625E-07,0) scale(1,1)  " fill="#F8D030" d="M15.530994,27.095991L16.530994,27.095991 16.530994,32 15.530994,32z M7.8219934,23.514999L8.5289917,24.222 5.0620008,27.689003 4.3550024,26.982002z M24.222001,23.470993L27.688991,26.937996 26.981994,27.644997 23.515002,24.177994z M0,15.530994L4.9040084,15.530994 4.9040084,16.530994 0,16.530994z M27.095992,15.469006L31.999999,15.469006 31.999999,16.469006 27.095992,16.469006z M15.998987,6.474987C21.259971,6.4749874 25.524007,10.739986 25.524007,15.99998 25.524007,21.259989 21.259971,25.524986 15.998987,25.524986 10.739011,25.524986 6.4750061,21.259989 6.4750061,15.99998 6.4750061,10.739986 10.739011,6.4749874 15.998987,6.474987z M5.0179954,4.355001L8.4850121,7.8220043 7.778008,8.5290051 4.3109918,5.0620012z M26.93797,4.3110037L27.644969,5.018002 24.177978,8.484993 23.470981,7.7779946z M15.469006,0L16.469006,0 16.469006,4.9039931 15.469006,4.9039931z" />
  </g>
</svg>