<?xml version="1.0" encoding="utf-8"?>
<svg xmlns="http://www.w3.org/2000/svg" height="32" width="32" viewBox="0 0 32 32">
  <g>
    <path id="path1" transform="rotate(0,16,16) translate(0,0.0500125885009766) scale(1,1)  " fill="#DAA520" d="M14.255,27.812979C14.853,27.912979 15.352,27.912979 15.95,27.912979 16.548,27.912979 17.047,27.912979 17.645,27.812979L17.645,30.205976C17.645,31.102976 16.947,31.899975 15.95,31.899975 15.053,31.899975 14.255,31.201977 14.255,30.205976z M23.227,25.42098L24.424,27.513979C24.822001,28.311978 24.623,29.307978 23.825,29.806976 23.028,30.205976 22.031,30.005978 21.533,29.208978L20.336,27.11498C21.433,26.71698,22.33,26.11798,23.227,25.42098z M8.473,25.220981C9.3710001,25.918981,10.268,26.51698,11.265,26.915979L9.9689999,29.008978C9.47,29.806976 8.473,30.005978 7.6760001,29.606977 6.878,29.108977 6.6790001,28.111979 7.0780001,27.31498z M27.014999,20.435985L29.209,21.731983C30.006001,22.230983 30.305,23.226982 29.806999,24.024981 29.308001,24.821981 28.311001,25.120981 27.514,24.622981L25.321,23.426982C26.019,22.429983,26.617001,21.432983,27.014999,20.435985z M4.8850002,20.236985C5.283,21.233984,5.7820001,22.230983,6.48,23.127982L4.2860003,24.323981C3.4889998,24.722981 2.4919996,24.522982 1.9940004,23.725982 1.5950003,22.927982 1.8940001,21.930984 2.691,21.532984z M27.712999,14.254989L30.305,14.254989C31.202,14.254989 32,14.952989 32,15.949988 32,16.846987 31.302,17.644987 30.305,17.644987L27.813,17.644987C27.913,17.145987 27.913,16.647987 27.913,16.149988 27.813,15.451988 27.813,14.853989 27.712999,14.254989z M1.6949997,14.254989L4.2860003,14.254989C4.1870003,14.853989 4.1870003,15.451988 4.1870003,16.049988 4.1870003,16.547987 4.1870003,17.046987 4.2860003,17.544987L1.6949997,17.544987C0.69799995,17.644987 0,16.846987 0,15.949988 0,15.052989 0.69799995,14.254989 1.6949997,14.254989z M28.410999,7.2769947C29.009001,7.2769947 29.607,7.5759945 29.906,8.0749941 30.305,8.8719931 30.106001,9.8689926 29.308001,10.367992L27.014999,11.663991C26.617001,10.666992,26.019,9.6699927,25.42,8.7729936L27.712999,7.4769945C27.913,7.3769946,28.112,7.2769947,28.410999,7.2769947z M3.5890002,7.1779947C3.888,7.1779947,4.0869999,7.2769947,4.3860002,7.3769946L6.6789999,8.6729932C5.9809999,9.5699928,5.3829999,10.466992,4.9840002,11.563991L2.691,10.267992C1.9940004,9.7689927 1.6949997,8.7729936 2.0930004,7.9749942 2.4919996,7.4769945 2.9900002,7.1779947 3.5890002,7.1779947z M15.95,5.9809957C21.533,5.9809957 26.019,10.466992 26.019,16.049988 26.019,21.631984 21.533,26.11798 15.95,26.11798 10.367,26.11798 5.881,21.631984 5.881,16.049988 5.881,10.466992 10.367,5.9809957 15.95,5.9809957z M23.327,1.9939985L23.427,1.9939985C23.726,1.9939985 23.925,2.0929985 24.224,2.1929979 25.022,2.6919975 25.221,3.6879969 24.822001,4.4859962L23.427,6.778995C22.529,6.0809956,21.632,5.482996,20.536,5.0839958L21.931,2.8909979C22.23,2.2929983,22.729,2.0929985,23.327,1.9939985z M8.8720002,1.8939981C9.47,1.8939981,10.068,2.1929979,10.367,2.6919975L11.663,4.9839964C10.666,5.3829961,9.6700001,5.9809957,8.7720003,6.5789952L7.4759998,4.2869968C6.9780002,3.4889975 7.2770002,2.4919977 8.0749998,2.0929985 8.3740001,1.8939981 8.5730001,1.8939981 8.8720002,1.8939981z M15.95,0C16.847,0,17.645,0.69799995,17.645,1.6949987L17.645,4.3859968C17.146,4.2869968 16.548,4.2869968 15.95,4.2869968 15.352,4.2869968 14.853,4.2869968 14.255,4.3859968L14.255,1.6949987C14.255,0.69799995,15.053,0,15.95,0z" />
  </g>
</svg>