<?xml version="1.0" encoding="utf-8"?>
<svg xmlns="http://www.w3.org/2000/svg" height="32" width="32" viewBox="0 0 32 32">
  <g>
    <path id="path1" transform="rotate(0,16,16) translate(0,4.72777535239938) scale(0.999845290300737,0.999845290300737)  " fill="#1E90FF" d="M6.8663216,18.33298C7.3210021,18.333992 7.7705684,18.400482 8.2027517,18.534557 8.8597446,18.738576 9.37674,19.118613 9.8907342,19.522651 10.627727,20.102706 11.174722,20.35173 11.777716,20.382732 11.923714,20.383733 12.502709,20.194715 13.3747,19.389638L13.452699,19.323632C13.817696,19.040606 14.579689,18.540558 15.589678,18.375542 16.596668,18.213527 17.654659,18.526556 18.648649,19.290629 18.828647,19.428642 19.032644,19.623661 19.256643,19.841681L19.51264,20.089705C19.839637,20.399734 20.305631,20.56275 20.784627,20.546748 21.257623,20.526747 21.678619,20.337729 21.969616,20.013698L22.132614,19.837681C22.214613,19.751673 22.301612,19.661664 22.380611,19.557654 22.922605,18.847587 23.881597,18.422546 24.945587,18.419546L24.955585,18.419546C26.145574,18.419546 27.260562,18.945596 27.941557,19.82968 28.172554,20.129709 28.274553,20.225718 28.460552,20.401734L28.688549,20.619756C29.081544,21.007792 29.085546,21.640852 28.697549,22.03389 28.310552,22.426927 27.677558,22.431928 27.283563,22.04489L27.085565,21.853872C26.869567,21.650853 26.684568,21.474836 26.357572,21.050797 26.053575,20.654758 25.528581,20.419736 24.955585,20.419736L24.950586,20.419736C24.457592,20.420736 24.103595,20.596753 23.970596,20.77177 23.846597,20.933785 23.713598,21.076798 23.586599,21.211812L23.4596,21.347824C22.802608,22.079894 21.881616,22.503934 20.865627,22.544938 20.814626,22.546938 20.762628,22.547938 20.710628,22.547938 19.747638,22.547938 18.816646,22.185905 18.137653,21.542843L17.856657,21.271817C17.699657,21.117803 17.55966,20.975789 17.431659,20.87778 17.050664,20.585752 16.47467,20.256721 15.911675,20.348729 15.318681,20.445739 14.853686,20.768769 14.680687,20.902782 13.576698,21.925879 12.602707,22.421926 11.676717,22.379923 10.36873,22.313916 9.4147392,21.693857 8.6537471,21.0948 8.27875,20.799772 7.9427538,20.547749 7.6117569,20.445739 6.8057652,20.196715 5.8607741,20.369732 5.0247827,20.922784 4.2807899,21.414831 3.9397932,21.775866 3.9367931,21.778866 3.560797,22.180903 2.9298032,22.203906 2.5248073,21.83187 2.1218112,21.458835 2.0928114,20.832775 2.4628079,20.426737 2.5118073,20.373732 2.9648028,19.887686 3.9217935,19.254626 4.8409715,18.645443 5.8660241,18.330753 6.8663216,18.33298z M4.3981252,12.181024C5.3745313,12.175789 6.3081632,12.781602 7.3115421,14.039275 7.5965167,14.345211 8.3155761,14.806158 9.3775335,13.826286L9.8275486,13.411293 9.8645368,13.424292C11.800584,11.94948 13.33459,12.659423 14.108582,13.248347 14.138611,13.269341 14.175599,13.295339 14.214601,13.325304 14.972601,13.896286 16.360611,14.760143 17.132587,14.119222 17.268575,14.014254 17.684593,13.721256 18.232631,13.344345 20.112648,12.051459 22.044607,13.286307 23.081661,13.951272 23.209653,14.033234 23.328672,14.110251 23.439634,14.176223L23.803651,14.39623C24.011659,14.33624 24.274662,14.168228 24.607671,13.960243 25.269662,13.546288 26.175674,12.979334 26.944662,12.601385L27.102682,12.539441C28.192655,12.217456 30.007669,12.788376 31.60271,14.787178 31.946706,15.219137 31.876699,15.849072 31.44469,16.193028 31.259691,16.339985 31.039718,16.410961 30.821701,16.410961 30.527692,16.410961 30.236675,16.282008 30.038675,16.035026 28.967685,14.690204 27.949672,14.449203 27.705652,14.457198 27.05068,14.792183 26.257646,15.287123 25.668653,15.656039 25.261667,15.91004 24.936653,16.108992 24.777656,16.189001 24.132633,16.511963 23.380674,16.479984 22.763666,16.105025L22.408622,15.890022C22.28362,15.815079 22.147634,15.728053 22.003652,15.636083 20.953657,14.963123 20.092628,14.490214 19.367649,14.991135 18.856597,15.343086 18.467619,15.616066 18.373624,15.686066 17.623619,16.31002 15.877575,17.082883 13.009576,14.922174L12.902581,14.843141C12.460561,14.505166 11.865587,14.284243 10.827555,15.220114 10.797587,15.248126 10.751566,15.289137 10.691568,15.334115 8.5855365,17.2429 6.5715471,16.178015 5.7965179,15.343086 4.78052,14.074245 4.3885499,14.140216 4.1224957,14.254217 2.6765028,15.168118 1.639509,15.719082 1.1954752,15.808062 0.65549397,15.911016 0.12747549,15.563093 0.019503365,15.022137 -0.08450094,14.501199 0.23752258,13.994236 0.74552112,13.860279 0.81949644,13.834281 1.3965265,13.615311 3.109489,12.528395L3.2255178,12.465414C3.6274307,12.278684,4.0160528,12.183073,4.3981252,12.181024z M16.312236,0.00033569336C16.362526,-0.00028896332 16.412857,-6.3896179E-05 16.463153,0.0011901855 16.530216,0.0028619766 16.597215,0.0063619614 16.663965,0.012112617 16.932966,0.027113914 17.201965,0.061115265 17.463966,0.12611961 17.991964,0.24912643 18.483964,0.46413898 18.962965,0.70315266L19.022964,0.74515533C19.581964,1.0301714,20.111963,1.3481903,20.653963,1.6472073L21.087963,1.9002218 21.495962,2.1582365 22.306961,2.6792669 23.135961,3.2342987 23.91196,3.807332C24.42696,4.1923542 24.938959,4.5803766 25.438959,4.9864001 25.660959,5.1604099 25.672958,5.191412 25.813959,5.3044186L26.161958,5.5824347C26.398958,5.7664452 26.648958,5.9344549 26.893957,6.110465 27.385957,6.4614854 27.907957,6.7685027 28.443956,7.043519 28.711956,7.1745262 28.984954,7.3185349 29.267955,7.4155402 29.548955,7.5315471 29.834955,7.6245522 30.129955,7.7145576 30.424953,7.7705607 30.728954,7.8645663 31.039953,7.8855672 31.353954,7.9345703 31.669952,7.9295697 32.004953,7.9345703 31.710952,8.065578 31.404953,8.2415879 31.072954,8.3045914 30.743953,8.4085977 30.403953,8.4385993 30.057954,8.4706006 29.716955,8.4716012 29.362955,8.4886022 29.022955,8.4355989 28.675956,8.4035974 28.341957,8.3245928 28.001957,8.2515883 27.326957,8.0945797 26.693958,7.824564 26.069957,7.5405474 25.755958,7.3985391 25.463958,7.2205291 25.166959,7.0455189L24.72896,6.7665029C24.607959,6.6924987 24.37796,6.5124884 24.337959,6.5004873 23.79696,6.1514673 23.26996,5.7834458 22.74496,5.4124246L21.960962,4.8513923 21.196962,4.3203616 19.646963,3.2062969C19.105964,2.8122749,18.552965,2.4382524,18.028965,2.031229L18.088964,2.0732317C17.755964,1.8292179 17.409965,1.5922041 17.032966,1.4321947 16.847965,1.3381891 16.657966,1.2591848 16.459966,1.1991816 16.262966,1.1301775 16.058967,1.0901747 15.850966,1.0541735 15.641966,1.022171 15.428967,0.99516964 15.210967,0.99116898 14.993968,0.98816872 14.773967,1.0041704 14.549967,1.0291719 14.102968,1.0841751 13.645968,1.1951809 13.200968,1.3881922 13.824968,0.62914848 14.805967,0.14712048 15.862966,0.024113655 16.010904,0.011738777 16.161373,0.0022106171 16.312236,0.00033569336z M3.3902047,0.00033569336C3.4404929,-0.00028896332 3.490825,-6.3896179E-05 3.5411218,0.0011901855 3.6081846,0.0028619766 3.6751848,0.0063619614 3.7419351,0.012112617 4.0109358,0.027113914 4.2799364,0.061115265 4.5419369,0.12611961 5.0699382,0.24912643 5.5619393,0.46413898 6.0409403,0.70315266L6.1009408,0.74515533C6.6599422,1.0301714,7.1899434,1.3481903,7.7319446,1.6472073L8.1659456,1.9002218 8.5739465,2.1582365 9.3849483,2.6792669 10.213951,3.2342987 10.989953,3.807332C11.504954,4.1923542 12.016955,4.5803766 12.516956,4.9864001 12.738957,5.1604099 12.750957,5.191412 12.891957,5.3044186L13.239957,5.5824347C13.476959,5.7664452 13.726959,5.9344549 13.97196,6.110465 14.46396,6.4614854 14.985961,6.7685027 15.521964,7.043519 15.789964,7.1745262 16.062965,7.3185349 16.345966,7.4155402 16.626966,7.5315471 16.912967,7.6245522 17.207967,7.7145576 17.502967,7.7705607 17.806968,7.8645663 18.117969,7.8855672 18.430971,7.9345703 18.746971,7.9295697 19.082971,7.9345703 18.788971,8.065578 18.482971,8.2415879 18.15097,8.3045914 17.82197,8.4085977 17.481967,8.4385993 17.135967,8.4706006 16.794965,8.4716012 16.440965,8.4886022 16.100965,8.4355989 15.753964,8.4035974 15.419963,8.3245928 15.079962,8.2515883 14.40496,8.0945797 13.771959,7.824564 13.147957,7.5405474 12.833957,7.3985391 12.541956,7.2205291 12.244956,7.0455189L11.806954,6.7665029C11.685954,6.6924987 11.455953,6.5124884 11.415953,6.5004873 10.874952,6.1514673 10.347951,5.7834458 9.8229499,5.4124246L9.0389476,4.8513923 8.2749458,4.3203616 6.7249423,3.2062969C6.1839409,2.8122749,5.6309395,2.4382524,5.1069384,2.031229L5.1669384,2.0732317C4.8339377,1.8292179 4.487937,1.5922041 4.1109357,1.4321947 3.9259356,1.3381891 3.735935,1.2591848 3.5379346,1.1991816 3.3409341,1.1301775 3.1369336,1.0901747 2.928933,1.0541735 2.7199326,1.022171 2.5069321,0.99516964 2.2889314,0.99116898 2.0719312,0.98816872 1.8519305,1.0041704 1.62793,1.0291719 1.180929,1.0841751 0.72392785,1.1951809 0.27892672,1.3881922 0.90292828,0.62914848 1.8839306,0.14712048 2.940933,0.024113655 3.0888711,0.011738777 3.2393401,0.0022106171 3.3902047,0.00033569336z" />
  </g>
</svg>