<?xml version="1.0" encoding="utf-8"?>
<svg xmlns="http://www.w3.org/2000/svg" height="32" width="32" viewBox="0 0 32 32">
  <g>
    <path id="path1" transform="rotate(0,16,16) translate(0,4.00275823473322) scale(0.999936942262357,0.999936942262357)  " fill="#1E90FF" d="M31.926003,16.87601C31.926003,16.87601 31.724002,17.273014 31.345002,17.94602 31.153003,18.281023 30.924003,18.691027 30.643003,19.146031 30.372004,19.596035 30.074003,20.13704 29.600003,20.676045 28.699004,21.759056 27.322005,22.741064 25.685006,23.375071 25.251007,23.534071 24.900007,23.675074 24.336007,23.792074 23.900008,23.878075 23.448008,23.934076 22.987008,23.964075 22.052009,24.028076 21.152009,23.983076 20.27101,23.940075 19.25001,23.845074 18.432011,23.635073 17.537012,23.40007 16.670012,23.158068 15.867013,22.837065 15.092013,22.532063 14.316014,22.23106 13.593014,21.881056 12.907015,21.551054 12.556015,21.376052 12.253015,21.239051 11.886015,21.025048 11.620016,20.868047 11.323016,20.697045 11.048016,20.564044 9.9310169,20.010039 8.9080176,19.701036 8.1690178,19.559035 7.4310188,19.411034 6.9840183,19.410033 6.9840183,19.410033 6.9840183,19.410033 7.4010181,19.246032 8.1880178,19.168032 8.9690175,19.09103 10.126017,19.124031 11.452016,19.505034 11.789016,19.599035 12.112015,19.711037 12.485015,19.848038 12.802015,19.957039 13.130015,20.069039 13.467014,20.184041 14.170014,20.407043 14.912014,20.642045 15.679013,20.885047 16.442012,21.12805 17.242012,21.339051 18.032012,21.539053 18.797011,21.723055 19.68501,21.910057 20.40201,21.949057 21.259009,21.997057 22.101009,22.071058 22.880008,22.034058 23.275008,22.015059 23.669008,21.980057 24.064007,21.943056 24.328008,21.917057 24.772007,21.803055 25.111007,21.704054 26.562006,21.275051 27.840005,20.617044 28.790005,19.853038 29.256004,19.481034 29.659003,19.045031 30.044003,18.662026 30.416003,18.280023 30.756003,17.96002 31.033003,17.695018 31.591002,17.166013 31.926003,16.87601 31.926003,16.87601z M8.8549967,13.829768C9.3459964,13.830769 9.830996,13.855769 10.317996,13.89877 11.285995,14.003773 12.239995,14.197778 13.173994,14.454784 13.633994,14.574787 14.118994,14.738791 14.535994,14.892795L15.836993,15.356807 18.421993,16.26783C19.293992,16.566837,20.160991,16.878845,21.020991,17.213854L20.862991,17.181853 21.073991,17.227854 21.193991,17.265855 21.400991,17.336857 21.784991,17.46086C22.036991,17.528862 22.287991,17.605864 22.54199,17.649865 23.05099,17.750867 23.56799,17.764868 24.08199,17.699866 24.34199,17.671865 24.593989,17.605864 24.848989,17.527862 25.090989,17.426859 25.35199,17.340857 25.58499,17.196854 25.833989,17.07585 26.053989,16.906846 26.282989,16.736841 26.516989,16.573837 26.712989,16.362832 26.936989,16.170827 26.790989,16.418834 26.666988,16.693841 26.491989,16.934847 26.315989,17.175853 26.128989,17.415859 25.901989,17.622864 25.694989,17.85287 25.430989,18.020874 25.171989,18.199879 24.90099,18.358883 24.61899,18.505886 24.315989,18.613889 23.71399,18.832894 23.06499,18.913897 22.426991,18.909897 22.106991,18.909897 21.789991,18.881896 21.478991,18.831895L21.023991,18.747892 20.813991,18.705892 20.724991,18.688891 20.723991,18.692891 20.564991,18.660891C19.663992,18.454885,18.769992,18.226879,17.880993,17.984873L16.543993,17.630864 15.205994,17.198853 12.624995,16.358832C11.789995,16.101826 10.934996,15.916821 10.076996,15.785817 9.6489959,15.712816 9.2159963,15.656815 8.7869964,15.622813 8.5489964,15.598813 8.3449965,15.604813 8.1729965,15.595813 7.9909964,15.577812 7.7809973,15.625813 7.5849972,15.635814 6.7719975,15.713816 5.9189978,15.961823 5.0769978,16.242829 3.3789988,16.808844 1.6999998,17.563863 0,18.329882 0.67199993,17.679866 1.3919992,17.07685 2.1549997,16.531837 2.9109993,15.974822 3.7149982,15.48181 4.5569983,15.029799 4.9759979,14.798793 5.4199982,14.609788 5.8729973,14.426784 6.3269978,14.245779 6.8019972,14.089775 7.303997,13.971772 7.5649967,13.933771 7.8079967,13.862769 8.0879965,13.856769 8.3759966,13.843768 8.6319966,13.824768 8.8549967,13.829768z M14.190546,5.5789948E-05C16.028465,-0.006562233 19.710221,0.57377005 22.028396,1.6655898 23.694365,2.3486142 25.632328,3.91967 27.798287,6.3357558L28.053283,6.6597675C28.674271,7.4647959 30.565235,9.9148831 31.647215,10.827915 32.069207,11.183928 32.122206,11.81495 31.766212,12.236965 31.568216,12.470973 31.286222,12.591978 31.001227,12.591978 30.773232,12.591978 30.545236,12.513975 30.356239,12.355969 29.241261,11.413936 27.605291,9.3518629 26.470312,7.8818107L26.277316,7.6348016C24.959341,6.1647497,22.991378,4.2216808,21.27741,3.5186557L21.177412,3.4756541C20.611423,3.2096448 19.956435,2.9806366 19.271448,2.7886298 21.27441,4.5536925 21.440407,6.3287556 21.449407,6.4407595 21.452032,6.4751983 21.452879,6.5093597 21.452027,6.5431539L21.451984,6.543721 21.459291,6.6764202C21.545662,9.098104 20.137335,10.77449 17.472463,11.41097 17.394464,11.428976 17.316465,11.43801 17.239443,11.43801 17.211196,11.43801 17.183114,11.436802 17.155258,11.434427L17.118832,11.429769 17.060275,11.426767C16.822443,11.402335 16.591884,11.292632 16.419513,11.101006 15.380532,9.9470029 14.265552,8.5039992 13.789561,7.8879972L13.592565,7.6349967C11.697599,5.5209911,10.04363,4.1609875,8.7076545,3.6259861L8.6106563,3.5869859C8.0526667,3.3219852 7.389679,3.0849845 6.6876917,2.878984 8.5966568,4.6139887 8.7576537,6.3299933 8.7656536,6.4409937 8.7682786,6.4754313 8.7691221,6.5095916 8.7682629,6.5433847L8.7681847,6.5444155 8.7767611,6.71217C8.8143086,8.0562172 8.3753238,9.203877 7.4968853,10.043908 6.0218849,11.45496 3.6188831,11.691968 2.1708813,11.691968 1.483881,11.691968 1.0118809,11.638967 0.95388126,11.631967 0.40587997,11.566964 0.015880585,11.069946 0.079879761,10.521925 0.14488029,9.9729052 0.64788055,9.5878911 1.1888809,9.6458931 2.1418819,9.755897 4.8808842,9.781898 6.1168842,8.595854 6.618885,8.1138365 6.8328848,7.4568124 6.7688847,6.5877801L6.7688322,6.5855886C6.7246056,6.2871113 6.1843262,3.6567361 1.0577955,2.1609824 0.52980518,2.0069816 0.19981194,1.4989805 0.27180958,0.95397902 0.34480858,0.41397715 0.79080009,0.013976097 1.3337908,0.00197649 3.0737581,-0.02802372 7.0216856,0.61897802 9.4296412,1.7629809 10.05563,2.0119817 11.898596,2.7479837 15.112537,6.3359933L15.371532,6.6649945C15.718776,7.1134955,16.4142,8.0136852,17.157437,8.8993905L17.515545,9.3199663 17.610853,9.2880206C19.378189,8.6569345,19.516668,7.4650668,19.452342,6.587763L19.452075,6.5765642 19.447392,6.5485826C19.368267,6.1148339 18.699021,3.6082214 13.742552,2.1616075 13.216562,2.0086021 12.885568,1.5015841 12.956567,0.9555645 13.027565,0.41454554 13.474557,0.013531208 14.018547,0.0025310516 14.073889,0.0010933876 14.131258,0.00026941299 14.190546,5.5789948E-05z" />
  </g>
</svg>