<?xml version="1.0" encoding="utf-8"?>
<svg xmlns="http://www.w3.org/2000/svg" height="32" width="32" viewBox="0 0 32 32">
  <g>
    <path id="path1" transform="rotate(0,16,16) translate(0.100003250370637,0) scale(1,1)  " fill="#926F58" d="M16.175683,16.5C17.87569,16.5 19.875697,17.100006 21.975715,19.200012 21.975715,19.200012 26.475734,24.100006 27.175735,27.5 27.175735,27.5 28.675742,31.5 22.875713,32 22.875713,32 18.075702,30.5 16.175683,30.5 16.175683,30.5 13.775679,30.899994 10.075665,31.899994 10.075665,31.899994 4.3756264,32.399994 5.6756352,26.899994 5.6756352,26.899994 9.0756601,20.100006 12.075674,17.800018 12.175665,17.800018 13.775679,16.5 16.175683,16.5z M28.775749,10.100006L28.975747,10.100006C29.27575,10.100006 29.675746,10.200012 29.975751,10.300018 31.875755,11.100006 32.375755,14.200012 31.075763,17.100006 29.775754,20 27.175735,21.700012 25.275733,20.899994 23.375715,20.100006 22.875713,17 24.175722,14.100006 25.175725,11.700012 27.075744,10.200012 28.775749,10.100006z M2.875619,9.8999939C4.4756325,9.8999939 6.4756421,11.200012 7.6756447,13.399994 9.275658,16.200012 9.0756601,19.200012 7.1756423,20.300018 5.3756307,21.300018 2.6756214,19.899994 1.0756231,17.100006 -0.52439048,14.300018 -0.32439261,11.300018 1.5756255,10.200012 1.9756211,10 2.3756169,9.8999939 2.875619,9.8999939z M21.875707,0.20001221L22.275718,0.20001221C24.675723,0.70001221 26.07574,4 25.375724,7.7000122 24.675723,11.399994 22.275718,14 19.875697,13.600006 17.475694,13.200012 16.075693,9.8000183 16.775693,6.2000122 17.375686,2.7000122 19.57571,0.20001221 21.875707,0.20001221z M10.675659,0C12.875666,0.1000061 14.975682,2.7000122 15.375677,6.2000122 15.775689,9.8999939 14.275682,13.200012 11.875661,13.399994 9.4756559,13.800018 7.1756423,11 6.67564,7.3000183 6.2756442,3.6000061 7.7756513,0.30000305 10.175657,0.1000061 10.375655,0 10.575667,0 10.675659,0z" />
  </g>
</svg>