<?xml version="1.0" encoding="utf-8"?>
<svg xmlns="http://www.w3.org/2000/svg" height="32" width="32" viewBox="0 0 32 32">
  <g>
    <path id="path1" transform="rotate(0,16,16) translate(1.6,3.56739988327026) scale(0.9,0.9)  " fill="#00A1E9" d="M8.1490173,0L9.0429993,0 11.230011,3.8760043 13.21701,0.49700928 14.410004,0.49700928 15.006012,1.4909963 12.421997,5.8640092 15.901001,11.826011 19.378998,5.8640092 16.795013,1.4909963 17.390991,0.49700928 18.584015,0.49700928 20.571014,3.8760043 22.757996,0 23.950012,0 24.546997,0.99401805 22.360016,4.8699916 26.334991,4.8699916 26.932007,5.8640092 26.334991,6.8569892 21.266998,6.8569892 17.789001,12.819967 24.645996,12.819967 27.230011,8.4479912 28.421997,8.4479912 29.019012,9.4410027 27.031006,12.819967 31.403992,12.819967 32,13.813985 31.800995,14.808002 27.32901,14.808002 29.317017,18.186968 28.721008,19.180008 27.528015,19.180008 24.944,14.808002 18.087006,14.808002 21.565002,20.771011 26.634003,20.771011 27.230011,21.76399 26.634003,22.758009 22.65799,22.758009 24.845001,26.633982 24.248993,27.628 23.056,27.628 20.869995,23.751966 18.881989,27.130991 17.688995,27.130991 17.093018,26.136974 19.677002,21.76399 16.199005,15.80202 12.720001,21.76399 15.304016,26.136974 14.708008,27.130991 13.515991,27.130991 11.528015,23.751966 9.3420105,27.628 8.1490173,27.628 7.553009,26.633982 9.7390137,22.758009 5.7640076,22.758009 5.1679993,21.76399 5.7640076,20.771011 10.832001,20.771011 14.311005,14.808002 7.4530029,14.808002 4.8699951,19.180008 3.677002,19.180008 3.0809937,18.186968 5.0679932,14.808002 0.5960083,14.808002 0,13.813985 0.5960083,12.819967 5.0679932,12.819967 3.0809937,9.4410027 3.677002,8.4479912 4.8699951,8.4479912 7.4530029,12.819967 14.311005,12.819967 10.832001,6.8569892 5.7640076,6.8569892 5.1679993,5.8640092 5.7640076,4.8699916 9.7390137,4.8699916 7.553009,0.99401805z" />
  </g>
</svg>