<?xml version="1.0" encoding="utf-8"?>
<svg xmlns="http://www.w3.org/2000/svg" height="32" width="32" viewBox="0 0 32 32">
  <g>
    <path id="path1" transform="rotate(0,16,16) translate(0,0.270004240273922) scale(0.999999880790725,0.999999880790725)  " fill="#F7E228" d="M0,14.014866L12.213083,24.425789 12.213083,31.133739C2.6030423,30.832746,0,24.425789,0,24.425789z M8.6090581,0L12.213083,4.7049467 16.01709,0.29998497 18.520125,3.8039531C18.520125,3.8039534,19.421132,5.2059495,20.52212,3.8039531L23.325146,0C23.325146,-1.2564942E-07 28.631177,5.0049622 24.727162,13.414895 24.727162,13.414895 22.12415,17.418859 18.019116,16.917856L18.019116,25.727779 31.534207,14.214876C31.534207,14.214876,36.439233,34.636701,14.415091,31.033733L14.415091,16.61787 14.315084,16.61787C12.313089,16.517866 9.810084,16.217849 9.010061,15.416861 9.010061,15.416861 1.5010157,10.911895 8.6090581,0z" />
  </g>
</svg>